<svg xmlns="http://www.w3.org/2000/svg" width="400" height="400" viewBox="0 0 400 400" fill="none">
<mask id="path-1-inside-1_2_5" fill="white">
<path fill-rule="evenodd" clip-rule="evenodd" d="M250 0H150V79.2893L93.934 23.2233L23.2233 93.934L79.2893 150H-7.62939e-06V250H82.2893L23.2233 309.066L93.934 379.777L150 323.711V400H250V320.711L306.066 376.777L376.777 306.066L320.711 250H400V150H323.711L376.777 96.934L306.066 26.2233L250 82.2893V0Z"/>
</mask>
<path d="M150 0V-18H132V0H150ZM250 0H268V-18H250V0ZM150 79.2893L137.272 92.0172L168 122.745V79.2893H150ZM93.934 23.2233L106.662 10.4954L93.934 -2.23254L81.2061 10.4954L93.934 23.2233ZM23.2233 93.934L10.4954 81.2061L-2.23254 93.934L10.4954 106.662L23.2233 93.934ZM79.2893 150V168H122.745L92.0172 137.272L79.2893 150ZM-7.62939e-06 150V132H-18V150H-7.62939e-06ZM-7.62939e-06 250H-18V268H-7.62939e-06V250ZM82.2893 250L95.0173 262.728L125.745 232H82.2893V250ZM23.2233 309.066L10.4954 296.338L-2.23255 309.066L10.4954 321.794L23.2233 309.066ZM93.934 379.777L81.2061 392.505L93.934 405.233L106.662 392.505L93.934 379.777ZM150 323.711H168V280.255L137.272 310.983L150 323.711ZM150 400H132V418H150V400ZM250 400V418H268V400H250ZM250 320.711L262.728 307.983L232 277.255V320.711H250ZM306.066 376.777L293.338 389.505L306.066 402.233L318.794 389.505L306.066 376.777ZM376.777 306.066L389.505 318.794L402.233 306.066L389.505 293.338L376.777 306.066ZM320.711 250V232H277.255L307.983 262.728L320.711 250ZM400 250V268H418V250H400ZM400 150H418V132H400V150ZM323.711 150L310.983 137.272L280.255 168H323.711V150ZM376.777 96.934L389.505 109.662L402.233 96.934L389.505 84.206L376.777 96.934ZM306.066 26.2233L318.794 13.4954L306.066 0.767444L293.338 13.4954L306.066 26.2233ZM250 82.2893H232V125.745L262.728 95.0172L250 82.2893ZM150 18H250V-18H150V18ZM168 79.2893V0H132V79.2893H168ZM81.2061 35.9512L137.272 92.0172L162.728 66.5614L106.662 10.4954L81.2061 35.9512ZM35.9512 106.662L106.662 35.9512L81.2061 10.4954L10.4954 81.2061L35.9512 106.662ZM92.0172 137.272L35.9512 81.2061L10.4954 106.662L66.5614 162.728L92.0172 137.272ZM-7.62939e-06 168H79.2893V132H-7.62939e-06V168ZM18 250V150H-18V250H18ZM82.2893 232H-7.62939e-06V268H82.2893V232ZM35.9512 321.794L95.0173 262.728L69.5614 237.272L10.4954 296.338L35.9512 321.794ZM106.662 367.049L35.9512 296.338L10.4954 321.794L81.2061 392.505L106.662 367.049ZM137.272 310.983L81.2061 367.049L106.662 392.505L162.728 336.439L137.272 310.983ZM168 400V323.711H132V400H168ZM250 382H150V418H250V382ZM232 320.711V400H268V320.711H232ZM318.794 364.049L262.728 307.983L237.272 333.439L293.338 389.505L318.794 364.049ZM364.049 293.338L293.338 364.049L318.794 389.505L389.505 318.794L364.049 293.338ZM307.983 262.728L364.049 318.794L389.505 293.338L333.439 237.272L307.983 262.728ZM400 232H320.711V268H400V232ZM382 150V250H418V150H382ZM323.711 168H400V132H323.711V168ZM364.049 84.206L310.983 137.272L336.439 162.728L389.505 109.662L364.049 84.206ZM293.338 38.9512L364.049 109.662L389.505 84.206L318.794 13.4954L293.338 38.9512ZM262.728 95.0172L318.794 38.9512L293.338 13.4954L237.272 69.5614L262.728 95.0172ZM232 0V82.2893H268V0H232Z" fill="#E84E36" mask="url(#path-1-inside-1_2_5)"/>
</svg>